<svg width="76" height="31" viewBox="0 0 76 31" fill="none" xmlns="http://www.w3.org/2000/svg">
<path d="M54.8725 30.7883C51.8658 30.7883 49.4601 29.2988 48.3762 26.9959C48.2214 27.2634 48.0667 27.525 47.9119 27.7782L47.8887 27.8157C47.0266 29.2149 46.1346 30.662 43.8981 30.662C41.7107 30.662 40.8027 29.3111 40.0355 28.0585C39.3819 29.472 37.7898 30.625 35.5089 30.625C34.54 30.625 33.6486 30.399 32.8918 29.9769C31.9867 30.4788 30.9579 30.7403 29.9118 30.7341C28.3641 30.7341 27.0372 30.1911 26.1344 29.285C24.8606 30.2454 23.1653 30.7883 21.3535 30.7883C19.62 30.7883 18.0862 30.2948 16.8903 29.4326C16.5024 29.8069 16.0319 30.0936 15.5133 30.2716C14.7581 30.5396 13.8284 30.6665 12.5871 30.6665C11.3583 30.6665 10.4466 30.5406 9.71768 30.2716C9.60518 30.2299 9.4965 30.1841 9.39159 30.1344C9.28841 30.1838 9.17992 30.2295 9.06605 30.2716C8.33711 30.5421 7.42547 30.6665 6.19658 30.6665C4.9553 30.6665 4.02564 30.5416 3.27035 30.2716C1.87172 29.7746 1.03698 28.7031 1.03698 27.4055C1.02559 26.6863 1.30977 25.9916 1.82838 25.4708V19.1794C1.34756 18.7875 0.659851 18.0748 0.659851 16.909C0.659851 15.9076 1.1706 15.0335 2.09872 14.4491C3.56184 13.4985 5.94533 13.0696 7.17681 13.0696C9.12591 13.0696 9.91579 14.1436 10.2134 14.7837C10.5653 15.5374 10.5653 16.3449 10.5653 17.1998C11.0054 17.104 11.4553 17.056 11.9066 17.0566C12.265 17.0556 12.6226 17.0874 12.9746 17.1514C12.2415 16.2605 11.8148 15.0913 11.8148 13.9857C11.8132 13.3024 12.0199 12.6334 12.4096 12.0608C12.1331 11.4759 11.9943 10.84 12.0031 10.1981C12.0031 7.14743 14.7318 4.84695 18.3488 4.84695C19.051 4.84558 19.7503 4.93338 20.4284 5.10804C20.8424 4.91121 21.2987 4.8098 21.761 4.81191C23.0874 4.81191 24.2162 5.62184 24.9158 6.71161C26.3779 5.53251 28.4178 4.84794 30.81 4.84794C33.257 4.84794 35.3278 5.74819 36.6759 7.2343C38.0261 5.75362 40.0396 4.84794 42.3664 4.84794C43.7212 4.84794 44.9459 5.15592 45.9426 5.69192C45.9 5.47733 45.8786 5.25936 45.8787 5.04092C45.8787 2.74637 48.0275 1.20499 51.2266 1.20499C54.0357 1.20499 55.293 2.93244 55.293 4.6441C55.3001 5.32284 55.0753 5.98523 54.6528 6.53048C54.6842 6.5902 54.7121 6.64794 54.7363 6.70273C54.7403 6.71061 54.744 6.71868 54.7472 6.72692C55.1758 6.42241 55.6357 6.16062 56.12 5.94561C57.5826 5.28227 59.365 4.90223 61.0105 4.90223C62.1976 4.90223 63.2348 5.11397 64.0999 5.51177C64.03 5.26437 63.9953 5.00901 63.9971 4.75268C63.9971 3.75076 64.5073 2.87716 65.4352 2.29279C66.8989 1.34368 69.2821 0.916748 70.514 0.916748C72.4629 0.916748 73.2527 1.99073 73.5502 2.63088C73.9015 3.38602 73.9015 4.19891 73.9015 5.05918V13.3134C74.4201 13.8342 74.7045 14.5289 74.6931 15.2482C74.6931 16.491 73.9266 17.5265 72.6326 18.0482C73.8376 18.9696 74.5468 20.4794 74.5468 22.3535V25.4629C75.0647 25.9851 75.3491 26.6805 75.3384 27.4006C75.3384 28.6982 74.5031 29.7696 73.1045 30.2667C72.3494 30.5347 71.4197 30.6615 70.1788 30.6615C68.9499 30.6615 68.0382 30.5357 67.3093 30.2667C67.197 30.2249 67.0883 30.1791 66.9837 30.1295C66.8804 30.1788 66.7716 30.2246 66.6575 30.2667C65.9292 30.5371 65.017 30.6615 63.788 30.6615C62.5471 30.6615 61.6169 30.5367 60.8623 30.2667C60.3368 30.087 59.8605 29.7959 59.4693 29.4153C58.2203 30.2948 56.5993 30.7883 54.8725 30.7883Z" fill="#A7A7A7"/>
<path d="M23.8372 13.3362C23.8372 15.266 21.9898 16.6549 19.5207 16.6549C18.5781 16.6549 17.6356 16.4748 16.8813 16.0779C16.7492 16.4565 16.4288 16.6909 15.9573 16.6909C14.7511 16.6909 13.8653 15.1762 13.8653 13.9858C13.8653 13.1744 14.3363 12.7775 14.8455 12.7775C15.3733 12.7775 15.6937 13.1201 16.0517 13.5178C16.9943 14.582 17.8429 14.9423 18.4646 14.9423C19.0115 14.9423 19.2565 14.69 19.2565 14.3835C19.2565 14.0228 18.9361 13.8243 17.7485 13.4098C15.7881 12.7242 14.0536 12.0209 14.0536 10.2016C14.0536 8.19977 15.9011 6.81089 18.3516 6.81089C19.2188 6.81089 20.1614 6.99106 20.8966 7.38783C21.0287 7.00927 21.3491 6.77487 21.7638 6.77487C22.7626 6.77487 23.6299 8.14547 23.6299 9.19328C23.6299 10.0412 23.0624 10.3117 22.612 10.3117C22.141 10.3117 21.8206 10.023 21.4058 9.60838C20.746 8.86802 19.9349 8.52602 19.3509 8.52602C18.8231 8.52602 18.5771 8.76043 18.5771 9.04919C18.5771 9.39172 18.8598 9.5921 20.0283 9.93264C21.6318 10.3966 23.8372 11.2085 23.8372 13.3362ZM24.5353 11.8398C24.5353 8.8641 27.0633 6.8079 30.8129 6.8079C34.1307 6.8079 36.2985 8.82808 36.2985 11.6591C36.2985 14.653 33.7535 16.6727 30.0586 16.6727C26.7031 16.6727 24.5353 14.6708 24.5353 11.8398ZM31.7931 13.8416C31.7931 12.1102 30.8314 8.59361 29.7568 8.59361C29.2858 8.59361 29.0407 8.98845 29.0407 9.65723C29.0407 11.4069 30.0018 14.889 31.0956 14.889C31.548 14.8875 31.7931 14.5089 31.7931 13.8416ZM36.9398 11.9301C36.9398 8.95389 39.2583 6.8079 42.3692 6.8079C44.8007 6.8079 46.4784 8.10646 46.4784 9.65723C46.4784 10.7924 45.6112 11.4429 44.6124 11.4429C43.4433 11.4429 43.0285 10.5229 42.7458 9.67551C42.5952 9.20663 42.4069 8.57534 41.8977 8.57534C41.3302 8.57534 41.1058 9.33297 41.1058 10.1444C41.1058 11.8398 42.1051 13.048 43.6698 13.048C44.3106 13.048 44.7821 12.8506 45.3099 12.5791C45.5735 12.4345 45.8186 12.3264 46.0837 12.3264C46.4965 12.3264 46.7998 12.5969 46.7998 13.2104C46.7998 13.7873 46.5171 14.4724 45.9893 15.0676C45.1969 15.9516 43.8411 16.6727 42.0107 16.6727C39.0509 16.6727 36.9398 14.7611 36.9398 11.9301ZM47.5913 15.2482C47.5913 14.7794 47.874 14.5987 48.1376 14.4003C48.3073 14.2745 48.3826 14.1481 48.3826 13.7513V10.3246C48.3826 9.90992 48.2134 9.7298 48.0437 9.60346C47.7796 9.40601 47.5345 9.17061 47.5345 8.77378C47.5345 8.44899 47.6851 8.19678 48.0437 7.96237C49.0048 7.31286 50.8714 6.9343 51.7582 6.9343C53.0026 6.9343 53.0212 7.65533 53.0212 9.08029V13.7513C53.0212 14.1461 53.0965 14.2745 53.2662 14.4003C53.5304 14.5977 53.8131 14.7794 53.8131 15.2482C53.8131 16.2581 52.4558 16.5468 50.7027 16.5468C48.9496 16.5468 47.5913 16.2581 47.5913 15.2482ZM47.9302 5.04049C47.9302 3.63385 49.7214 3.16497 51.232 3.16497C52.6249 3.16497 53.2492 3.7602 53.2492 4.64564C53.2492 5.90816 51.345 6.4491 49.9474 6.4491C48.5715 6.44713 47.9302 5.87016 47.9302 5.04049ZM65.8397 14.4368C65.8397 15.3924 64.8402 16.5098 63.0305 16.5098C61.8434 16.5098 60.9759 16.0226 60.4669 15.1772C59.8069 16.0606 58.7323 16.6198 57.4317 16.6198C55.8483 16.6198 54.4342 15.7719 54.4342 13.9867C54.4342 12.0026 56.2064 11.1009 58.4495 11.1009C59.0395 11.0985 59.6278 11.1591 60.2036 11.2815V10.0541C60.2036 9.09851 60.1474 8.59361 59.695 8.59361C59.3179 8.59361 59.0728 9.04421 58.8087 9.42277C58.4129 10.0002 57.7907 10.6315 56.5654 10.6315C55.6043 10.6315 55.0951 10.1084 55.0951 9.58519C55.0951 8.2328 58.2055 6.86173 61.0148 6.86173C63.5784 6.86173 64.9167 8.05216 64.9167 10.2179V13.0672C64.9167 13.6985 65.0863 14.005 65.6706 14.1856C65.8188 14.2384 65.8397 14.2922 65.8397 14.4368ZM60.3538 13.2104V12.5609C60.2742 12.4735 60.1754 12.404 60.0646 12.3573C59.9538 12.3105 59.8336 12.2877 59.7125 12.2904C59.26 12.2904 58.9588 12.7054 58.9588 13.4256C58.9588 14.201 59.3168 14.5079 59.6562 14.5079C60.0922 14.5089 60.3538 14.2543 60.3538 13.2104ZM66.3679 15.2482C66.3679 14.7794 66.669 14.5987 66.9522 14.4003C67.1212 14.2745 67.2156 14.1481 67.2156 13.7513V6.64406C67.2156 6.10114 66.9522 5.86868 66.7257 5.7063C66.3864 5.45409 66.0476 5.21965 66.0476 4.75077C66.0476 4.42601 66.1982 4.15554 66.5752 3.9206C67.5932 3.25381 69.5725 2.87476 70.5153 2.87476C71.8345 2.87476 71.8536 3.61509 71.8536 5.05727V13.7513C71.8536 14.1461 71.9288 14.2745 72.0985 14.4003C72.3626 14.5977 72.6452 14.7794 72.6452 15.2482C72.6452 16.2581 71.2878 16.5468 69.5349 16.5468C67.7438 16.5468 66.3679 16.2581 66.3679 15.2482ZM15.6973 27.4031C15.6973 28.4134 14.3399 28.7016 12.5869 28.7016C10.8338 28.7016 9.64619 28.4134 9.64619 27.4574C9.64619 26.9885 9.90978 26.8079 10.0589 26.6278C10.2653 26.375 10.2653 26.1228 10.2653 25.9067V24.193C10.2653 22.4078 9.98201 21.9029 9.37896 21.9029C8.81144 21.9029 8.53077 22.3535 8.51171 23.8683V25.9067C8.51171 26.1041 8.51171 26.3395 8.71807 26.6278C8.85016 26.8079 9.13078 26.9885 9.13078 27.4574C9.13078 28.4134 7.9442 28.7016 6.19011 28.7016C4.43603 28.7016 3.08434 28.4134 3.08434 27.4031C3.08434 26.9342 3.36707 26.7541 3.63069 26.5557C3.80043 26.4293 3.87575 26.3035 3.87575 25.9067V18.7994C3.87575 18.2565 3.61212 18.0235 3.38563 17.8616C3.04669 17.609 2.70721 17.3745 2.70721 16.9056C2.70721 16.5809 2.85787 16.3104 3.23499 16.0759C4.25288 15.4087 6.23242 15.0301 7.17499 15.0301C8.49468 15.0301 8.51326 15.7705 8.51326 17.2121V21.0535C9.1205 19.9549 10.2302 19.017 11.9064 19.017C13.8297 19.017 14.9038 20.2796 14.9038 22.3535V25.9071C14.9038 26.302 14.9791 26.4298 15.1489 26.5562C15.4146 26.7541 15.6973 26.9342 15.6973 27.4031ZM26.2734 25.4195C26.2734 25.9244 26.0469 26.5014 25.6136 27.0246C24.8397 27.9984 23.3704 28.828 21.3532 28.828C18.3748 28.828 16.2823 26.8622 16.2823 24.121C16.2823 21.1636 18.6555 19.017 21.7303 19.017C24.671 19.017 26.2187 20.8566 26.2187 22.2815C26.2187 23.2553 25.5779 23.7784 24.3712 23.7784H20.4106C20.7501 24.7162 21.5972 25.2591 22.8421 25.2591C23.6159 25.2591 24.1999 25.0967 24.7654 24.7902C25.029 24.6461 25.2931 24.538 25.5568 24.538C25.9716 24.5361 26.2734 24.8065 26.2734 25.4195ZM20.2223 22.6783L21.0328 22.624C22.2013 22.5519 22.6729 22.1373 22.6729 21.5599C22.6729 21.0732 22.3334 20.6942 21.7303 20.6942C20.844 20.6942 20.2223 21.5421 20.2223 22.6783ZM38.3209 26.5932C38.3209 27.5492 37.3216 28.6662 35.5117 28.6662C34.3252 28.6662 33.4569 28.1795 32.9482 27.3335C32.2884 28.2175 31.2137 28.7762 29.9131 28.7762C28.3298 28.7762 26.9157 27.9288 26.9157 26.1435C26.9157 24.1594 28.6878 23.2577 30.931 23.2577C31.5209 23.2552 32.1093 23.3156 32.6851 23.4379V22.2094C32.6851 21.2534 32.6288 20.7485 32.1764 20.7485C31.7993 20.7485 31.5542 21.1996 31.2901 21.5781C30.8918 22.1551 30.2727 22.7864 29.0448 22.7864C28.0832 22.7864 27.5745 22.2632 27.5745 21.7405C27.5745 20.3877 30.6849 19.017 33.4935 19.017C36.0576 19.017 37.3958 20.2075 37.3958 22.3733V25.2211C37.3958 25.8524 37.5656 26.1589 38.1501 26.3395C38.3008 26.3958 38.3209 26.4476 38.3209 26.5932ZM32.8342 25.3652V24.7176C32.7546 24.6304 32.6559 24.5608 32.545 24.5141C32.4342 24.4674 32.314 24.4445 32.1929 24.4472C31.7404 24.4472 31.4392 24.8618 31.4392 25.5824C31.4392 26.3577 31.7972 26.6643 32.1367 26.6643C32.5701 26.6638 32.8342 26.4116 32.8342 25.3652ZM50.1398 20.2618C50.1398 20.7485 49.8948 21.055 49.3102 21.3798C48.8975 21.6142 48.5751 22.3358 48.0473 23.3456C47.4798 24.4275 46.8035 25.7082 46.1436 26.7901C45.3326 28.107 44.9746 28.7016 43.8999 28.7016C42.8253 28.7016 42.4482 28.1232 41.7135 26.9165C41.1857 26.0508 40.1487 24.193 39.5467 22.968C38.8868 21.6354 38.8492 21.5431 38.6041 21.3447C38.2832 21.092 37.9628 20.8758 37.9628 20.3886C37.9598 19.6834 38.7336 19.0911 41.4679 19.0911C43.8241 19.0911 44.9555 19.5605 44.9555 20.3896C44.9555 20.8408 44.5969 21.1113 44.3519 21.2736C44.1068 21.436 44.1068 21.6882 44.1826 22.0307C44.3142 22.6259 44.8419 23.7982 45.3888 24.8262C45.898 23.7621 46.3691 22.5899 46.4635 22.0307C46.5579 21.5081 46.4067 21.3639 46.0864 21.129C45.7469 20.8768 45.5395 20.6063 45.5395 20.2999C45.5395 19.6143 46.1993 19.0911 47.9524 19.0911C49.48 19.0911 50.1398 19.5402 50.1398 20.2618ZM59.7925 25.4195C59.7925 25.9244 59.5665 26.5014 59.1327 27.0246C58.3588 27.9984 56.8894 28.828 54.8722 28.828C51.8939 28.828 49.8014 26.8622 49.8014 24.121C49.8014 21.1636 52.1746 19.017 55.2494 19.017C58.1901 19.017 59.7378 20.8566 59.7378 22.2815C59.7378 23.2553 59.0965 23.7784 57.8903 23.7784H53.9313C54.2707 24.7162 55.1178 25.2591 56.3632 25.2591C57.1371 25.2591 57.7206 25.0967 58.286 24.7902C58.5497 24.6461 58.8138 24.538 59.0779 24.538C59.4912 24.5361 59.7925 24.8065 59.7925 25.4195ZM53.7414 22.6783L54.5519 22.624C55.7204 22.5519 56.1919 22.1373 56.1919 21.5599C56.1919 21.0732 55.8525 20.6942 55.2494 20.6942C54.3657 20.6942 53.7414 21.5421 53.7414 22.6783ZM73.2904 27.4031C73.2904 28.4134 71.9336 28.7016 70.1801 28.7016C68.4272 28.7016 67.2395 28.4134 67.2395 27.4574C67.2395 26.9885 67.5221 26.8079 67.6524 26.6278C67.8585 26.3573 67.8585 26.1411 67.8585 25.9067V24.193C67.8585 22.4078 67.5759 21.9029 66.9731 21.9029C66.4055 21.9029 66.1241 22.3535 66.1056 23.8683V25.9067C66.1056 26.1411 66.1056 26.3573 66.3123 26.6278C66.4443 26.8079 66.7245 26.9885 66.7245 27.4574C66.7245 28.4134 65.538 28.7016 63.7839 28.7016C62.0298 28.7016 60.6736 28.4134 60.6736 27.4031C60.6736 26.8982 61.013 26.7181 61.2203 26.5557C61.4658 26.3583 61.4658 26.1771 61.4658 25.9067V22.4799C61.4658 22.0653 61.2956 21.8847 61.1259 21.7583C60.8624 21.5609 60.6175 21.3255 60.6175 20.9291C60.6175 20.6044 60.768 20.3516 61.1259 20.1172C62.0878 19.4682 63.9536 19.0891 64.8408 19.0891C66.0273 19.0891 66.1038 19.7564 66.1038 21.055C66.7066 19.9549 67.819 19.017 69.4967 19.017C71.4192 19.017 72.494 20.2796 72.494 22.3535V25.9071C72.494 26.1776 72.494 26.3577 72.739 26.5562C72.9511 26.7181 73.2904 26.8982 73.2904 27.4031Z" fill="#FBFBFB"/>
</svg>
