<svg width="101" height="31" viewBox="0 0 101 31" fill="none" xmlns="http://www.w3.org/2000/svg">
<g clip-path="url(#clip0_48_1962)">
<path d="M15.5703 0.977732C17.0364 1.19028 17.7473 1.78395 17.8287 2.876C17.8584 3.34507 17.7621 4.06334 17.6288 4.26855C17.577 4.34918 17.4289 4.34918 16.6958 4.23924C15.7035 4.09266 14.4595 4.11464 13.5708 4.3052C9.31301 5.21403 6.26952 8.95196 5.54383 14.1703C5.41793 15.0572 5.41794 17.6664 5.53642 18.5312C6.00294 21.8367 7.52097 23.8816 10.046 24.5925C10.8977 24.8344 12.5934 24.8344 13.4376 24.5925C14.9556 24.1601 16.644 23.0534 17.8213 21.7268C19.2802 20.0777 20.3761 17.8936 20.7982 15.7681C21.0425 14.5661 21.0722 14.6908 20.3983 14.3243C19.569 13.8772 18.7692 13.2615 18.3841 12.7851C17.9768 12.2794 17.4511 11.2167 17.2882 10.579C16.6662 8.16768 17.4289 6.05688 19.2357 5.16272C19.5248 5.04304 19.8285 4.96172 20.1391 4.92086C20.6576 4.8393 21.1882 4.8856 21.6843 5.05564C22.1803 5.22567 22.6263 5.5142 22.9827 5.89565C23.9898 7.00968 24.4341 8.57081 24.4341 11.0041C24.4341 14.1996 23.8343 16.8822 22.5161 19.5574C20.5464 23.5591 17.2438 26.2709 13.3487 27.0771C11.9048 27.3776 9.86834 27.3849 8.49841 27.1065C4.82554 26.3516 2.15232 23.735 1.17486 19.9458C0.923087 18.9637 0.812012 17.8936 0.812012 16.4058C0.812012 12.6019 1.6858 9.52359 3.5889 6.69453C4.62259 5.14465 5.98073 3.83276 7.57134 2.84769C9.16196 1.86263 10.9479 1.22741 12.8082 0.985061C13.4894 0.894912 14.9778 0.894912 15.5703 0.977732Z" fill="#A7A7A7"/>
<path d="M29.8962 24.086V29.1388L27.1097 30.3679V12.1086H29.8962V13.1604C30.619 12.3908 31.6105 11.8008 33.1907 11.8008C36.6467 11.8008 38.8186 14.366 38.8186 18.6741C38.8186 22.9823 36.5415 25.5226 33.1907 25.5226C31.5839 25.5226 30.5657 24.8813 29.8962 24.086ZM36.0306 18.6741C36.0306 16.1353 34.8517 14.314 32.7894 14.314C31.5032 14.314 30.5124 14.8527 29.8962 15.8018V21.4995C30.5124 22.2948 31.4765 23.0123 32.7894 23.0123C34.8783 23.0087 36.0306 21.4702 36.0306 18.6741Z" fill="#A7A7A7"/>
<path d="M41.4951 18.6485C41.4951 14.3396 43.9595 11.8008 47.7095 11.8008C50.9513 11.8008 53.6031 13.7497 53.6031 17.931C53.6031 18.4946 53.5764 19.1872 53.4957 19.649H44.2809C44.3342 21.8037 45.9685 23.1633 47.7368 23.1633C48.8617 23.1633 49.8798 22.7015 50.5759 21.8294L52.3976 23.625C51.4068 24.7538 49.8525 25.5233 47.7095 25.5233C43.9055 25.5226 41.4951 22.9581 41.4951 18.6485ZM50.8173 17.4949C50.7633 15.0579 49.183 14.1601 47.7072 14.1601C45.9663 14.1601 44.4128 15.0579 44.2787 17.4949H50.8173Z" fill="#A7A7A7"/>
<path d="M65.2831 17.3955C65.2831 15.1893 64.1043 14.3172 62.5506 14.3172C60.8897 14.3172 59.6035 15.0868 59.6035 17.3442V25.215H56.8177V12.1089H59.6035V13.3644C60.4876 12.287 61.6398 11.7996 63.1401 11.7996C66.0059 11.7996 68.0689 13.2874 68.0689 17.3911V25.215H65.2831V17.3955Z" fill="#A7A7A7"/>
<path d="M69.4082 7.26099H72.408L76.6675 19.7771C76.8277 20.2645 77.0692 21.0084 77.2596 21.8293C77.4471 21.0084 77.6886 20.2645 77.8524 19.7771L82.0577 7.26099H85.0312L78.6292 25.2176H75.8375L69.4082 7.26099Z" fill="#A7A7A7"/>
<path d="M86.4992 16.2381C86.4992 12.1087 88.535 6.95337 94.2945 6.95337C97.8308 6.95337 99.9226 8.74906 100.671 10.5183L98.1254 11.647C97.2142 10.2874 96.224 9.52154 94.2945 9.52154C90.5442 9.52154 89.3923 13.2668 89.3923 16.2417C89.3923 19.4219 90.8654 22.9619 94.2945 22.9619C96.1456 22.9619 97.2408 22.0127 98.0988 20.6532L100.697 21.6059C99.6524 23.9396 97.6166 25.53 94.2945 25.53C88.4818 25.5227 86.4992 20.6751 86.4992 16.2381Z" fill="#A7A7A7"/>
</g>
<defs>
<clipPath id="clip0_48_1962">
<rect width="99.8849" height="29.8721" fill="white" transform="translate(0.812012 0.916504)"/>
</clipPath>
</defs>
</svg>
