<svg width="76" height="31" viewBox="0 0 76 31" fill="none" xmlns="http://www.w3.org/2000/svg">
<path d="M54.8723 30.3657C51.8656 30.3657 49.46 28.8762 48.376 26.5733C48.2212 26.8408 48.0665 27.1024 47.9117 27.3556L47.8885 27.3931C47.0264 28.7923 46.1344 30.2394 43.898 30.2394C41.7105 30.2394 40.8025 28.8885 40.0353 27.6359C39.3817 29.0494 37.7896 30.2024 35.5087 30.2024C34.5399 30.2024 33.6484 29.9763 32.8916 29.5543C31.9865 30.0562 30.9577 30.3177 29.9116 30.3115C28.3639 30.3115 27.0371 29.7685 26.1342 28.8624C24.8604 29.8228 23.1651 30.3657 21.3533 30.3657C19.6198 30.3657 18.086 29.8722 16.8901 29.01C16.5022 29.3843 16.0317 29.6709 15.5132 29.849C14.7579 30.117 13.8282 30.2438 12.5869 30.2438C11.3581 30.2438 10.4464 30.118 9.71749 29.849C9.60499 29.8072 9.49632 29.7615 9.39141 29.7118C9.28823 29.7612 9.17974 29.8069 9.06586 29.849C8.33692 30.1195 7.42529 30.2438 6.19639 30.2438C4.95512 30.2438 4.02546 30.119 3.27016 29.849C1.87154 29.352 1.0368 28.2805 1.0368 26.9829C1.02541 26.2637 1.30959 25.569 1.8282 25.0482V18.7568C1.34737 18.3649 0.659668 17.6522 0.659668 16.4864C0.659668 15.485 1.17042 14.6109 2.09854 14.0265C3.56166 13.0759 5.94515 12.647 7.17663 12.647C9.12573 12.647 9.9156 13.721 10.2133 14.3611C10.5651 15.1148 10.5651 15.9223 10.5651 16.7771C11.0052 16.6814 11.4552 16.6334 11.9065 16.634C12.2648 16.633 12.6224 16.6647 12.9744 16.7288C12.2413 15.8379 11.8146 14.6686 11.8146 13.5631C11.813 12.8798 12.0197 12.2108 12.4094 11.6382C12.1329 11.0533 11.9941 10.4174 12.0029 9.77553C12.0029 6.72483 14.7316 4.42435 18.3486 4.42435C19.0509 4.42297 19.7502 4.51077 20.4283 4.68543C20.8422 4.48861 21.2986 4.38719 21.7609 4.3893C23.0872 4.3893 24.216 5.19923 24.9156 6.289C26.3777 5.1099 28.4176 4.42533 30.8098 4.42533C33.2568 4.42533 35.3276 5.32558 36.6757 6.81169C38.0259 5.33101 40.0394 4.42533 42.3662 4.42533C43.721 4.42533 44.9457 4.73331 45.9425 5.26932C45.8998 5.05472 45.8784 4.83676 45.8785 4.61831C45.8785 2.32376 48.0273 0.782378 51.2264 0.782378C54.0355 0.782378 55.2928 2.50983 55.2928 4.22149C55.3 4.90023 55.0751 5.56263 54.6526 6.10787C54.6841 6.16759 54.7119 6.22534 54.7362 6.28012C54.7402 6.288 54.7438 6.29607 54.747 6.30431C55.1756 5.9998 55.6355 5.73801 56.1198 5.52301C57.5824 4.85966 59.3648 4.47962 61.0103 4.47962C62.1974 4.47962 63.2346 4.69136 64.0997 5.08916C64.0298 4.84176 63.9951 4.58641 63.9969 4.33007C63.9969 3.32815 64.5071 2.45456 65.435 1.87018C66.8987 0.921068 69.2819 0.494141 70.5138 0.494141C72.4627 0.494141 73.2525 1.56812 73.55 2.20827C73.9013 2.96341 73.9013 3.7763 73.9013 4.63657V12.8908C74.4199 13.4116 74.7043 14.1063 74.6929 14.8256C74.6929 16.0684 73.9264 17.1039 72.6324 17.6256C73.8374 18.547 74.5466 20.0568 74.5466 21.9308V25.0402C75.0646 25.5625 75.3489 26.2579 75.3382 26.978C75.3382 28.2756 74.503 29.347 73.1043 29.8441C72.3492 30.1121 71.4196 30.2389 70.1787 30.2389C68.9497 30.2389 68.038 30.1131 67.3092 29.8441C67.1968 29.8023 67.0881 29.7565 66.9835 29.7069C66.8802 29.7562 66.7715 29.802 66.6573 29.8441C65.9291 30.1145 65.0168 30.2389 63.7878 30.2389C62.5469 30.2389 61.6167 30.1141 60.8621 29.8441C60.3366 29.6644 59.8604 29.3733 59.4691 28.9927C58.2201 29.8722 56.5991 30.3657 54.8723 30.3657Z" fill="#A7A7A7"/>
<path d="M23.8371 12.9136C23.8371 14.8434 21.9896 16.2323 19.5205 16.2323C18.5779 16.2323 17.6354 16.0521 16.8811 15.6553C16.749 16.0339 16.4287 16.2683 15.9571 16.2683C14.7509 16.2683 13.8651 14.7536 13.8651 13.5632C13.8651 12.7517 14.3361 12.3549 14.8453 12.3549C15.3731 12.3549 15.6935 12.6974 16.0515 13.0952C16.9941 14.1594 17.8427 14.5196 18.4644 14.5196C19.0113 14.5196 19.2563 14.2674 19.2563 13.9609C19.2563 13.6002 18.9359 13.4017 17.7483 12.9871C15.7879 12.3016 14.0534 11.5983 14.0534 9.779C14.0534 7.77716 15.9009 6.38828 18.3515 6.38828C19.2186 6.38828 20.1612 6.56845 20.8964 6.96522C21.0285 6.58667 21.3489 6.35226 21.7636 6.35226C22.7624 6.35226 23.6297 7.72286 23.6297 8.77067C23.6297 9.61863 23.0622 9.88906 22.6118 9.88906C22.1408 9.88906 21.8204 9.60035 21.4056 9.18578C20.7458 8.44542 19.9347 8.10341 19.3507 8.10341C18.823 8.10341 18.5769 8.33782 18.5769 8.62658C18.5769 8.96912 18.8596 9.16949 20.0281 9.51003C21.6316 9.97399 23.8371 10.7859 23.8371 12.9136ZM24.5351 11.4172C24.5351 8.44149 27.0631 6.38529 30.8127 6.38529C34.1305 6.38529 36.2983 8.40547 36.2983 11.2365C36.2983 14.2304 33.7533 16.2501 30.0584 16.2501C26.7029 16.2501 24.5351 14.2482 24.5351 11.4172ZM31.7929 13.419C31.7929 11.6876 30.8313 8.171 29.7566 8.171C29.2856 8.171 29.0405 8.56584 29.0405 9.23463C29.0405 10.9843 30.0016 14.4663 31.0954 14.4663C31.5478 14.4649 31.7929 14.0863 31.7929 13.419ZM36.9396 11.5075C36.9396 8.53128 39.2581 6.38529 42.369 6.38529C44.8005 6.38529 46.4782 7.68385 46.4782 9.23463C46.4782 10.3698 45.611 11.0203 44.6122 11.0203C43.4432 11.0203 43.0283 10.1003 42.7456 9.2529C42.595 8.78403 42.4067 8.15273 41.8975 8.15273C41.33 8.15273 41.1056 8.91037 41.1056 9.72178C41.1056 11.4172 42.1049 12.6253 43.6696 12.6253C44.3104 12.6253 44.782 12.428 45.3097 12.1565C45.5733 12.0119 45.8184 11.9038 46.0835 11.9038C46.4963 11.9038 46.7996 12.1743 46.7996 12.7878C46.7996 13.3647 46.5169 14.0498 45.9892 14.645C45.1967 15.529 43.8409 16.2501 42.0105 16.2501C39.0507 16.2501 36.9396 14.3385 36.9396 11.5075ZM47.5911 14.8256C47.5911 14.3568 47.8738 14.1761 48.1374 13.9777C48.3071 13.8519 48.3824 13.7255 48.3824 13.3287V9.90195C48.3824 9.48731 48.2132 9.3072 48.0435 9.18086C47.7794 8.98341 47.5343 8.748 47.5343 8.35117C47.5343 8.02639 47.6849 7.77417 48.0435 7.53976C49.0046 6.89025 50.8712 6.51169 51.7581 6.51169C53.0024 6.51169 53.021 7.23272 53.021 8.65768V13.3287C53.021 13.7235 53.0963 13.8519 53.2661 13.9777C53.5302 14.1751 53.8129 14.3568 53.8129 14.8256C53.8129 15.8355 52.4556 16.1242 50.7025 16.1242C48.9494 16.1242 47.5911 15.8355 47.5911 14.8256ZM47.93 4.61788C47.93 3.21124 49.7213 2.74236 51.2318 2.74236C52.6248 2.74236 53.249 3.33759 53.249 4.22303C53.249 5.48556 51.3448 6.02649 49.9472 6.02649C48.5713 6.02452 47.93 5.44755 47.93 4.61788ZM65.8395 14.0142C65.8395 14.9698 64.84 16.0872 63.0304 16.0872C61.8432 16.0872 60.9758 15.6 60.4667 14.7546C59.8067 15.638 58.7321 16.1972 57.4315 16.1972C55.8481 16.1972 54.4341 15.3493 54.4341 13.5641C54.4341 11.58 56.2062 10.6783 58.4494 10.6783C59.0393 10.6759 59.6276 10.7365 60.2034 10.8589V9.63146C60.2034 8.6759 60.1472 8.171 59.6948 8.171C59.3177 8.171 59.0726 8.6216 58.8085 9.00016C58.4127 9.57763 57.7906 10.2089 56.5653 10.2089C55.6041 10.2089 55.095 9.68575 55.095 9.16258C55.095 7.81019 58.2054 6.43912 61.0146 6.43912C63.5782 6.43912 64.9165 7.62956 64.9165 9.79528V12.6446C64.9165 13.2759 65.0862 13.5824 65.6705 13.763C65.8186 13.8158 65.8395 13.8696 65.8395 14.0142ZM60.3536 12.7878V12.1383C60.274 12.0509 60.1752 11.9814 60.0644 11.9347C59.9536 11.8879 59.8334 11.8651 59.7123 11.8678C59.2598 11.8678 58.9586 12.2828 58.9586 13.003C58.9586 13.7784 59.3166 14.0853 59.6561 14.0853C60.092 14.0863 60.3536 13.8317 60.3536 12.7878ZM66.3677 14.8256C66.3677 14.3568 66.6688 14.1761 66.952 13.9777C67.121 13.8519 67.2154 13.7255 67.2154 13.3287V6.22145C67.2154 5.67854 66.952 5.44607 66.7255 5.28369C66.3862 5.03148 66.0474 4.79705 66.0474 4.32816C66.0474 4.0034 66.198 3.73293 66.575 3.49799C67.593 2.8312 69.5724 2.45215 70.5151 2.45215C71.8343 2.45215 71.8534 3.19248 71.8534 4.63466V13.3287C71.8534 13.7235 71.9287 13.8519 72.0983 13.9777C72.3624 14.1751 72.645 14.3568 72.645 14.8256C72.645 15.8355 71.2876 16.1242 69.5347 16.1242C67.7436 16.1242 66.3677 15.8355 66.3677 14.8256ZM15.6971 26.9805C15.6971 27.9908 14.3398 28.279 12.5867 28.279C10.8336 28.279 9.64601 27.9908 9.64601 27.0348C9.64601 26.5659 9.9096 26.3853 10.0587 26.2052C10.2651 25.9524 10.2651 25.7002 10.2651 25.4841V23.7704C10.2651 21.9852 9.98183 21.4803 9.37877 21.4803C8.81126 21.4803 8.53058 21.9309 8.51153 23.4457V25.4841C8.51153 25.6815 8.51153 25.9169 8.71788 26.2052C8.84998 26.3853 9.1306 26.5659 9.1306 27.0348C9.1306 27.9908 7.94401 28.279 6.18993 28.279C4.43584 28.279 3.08416 27.9908 3.08416 26.9805C3.08416 26.5116 3.36688 26.3315 3.63051 26.133C3.80024 26.0067 3.87556 25.8809 3.87556 25.4841V18.3768C3.87556 17.8339 3.61194 17.6009 3.38545 17.439C3.0465 17.1863 2.70703 16.9519 2.70703 16.483C2.70703 16.1583 2.85768 15.8878 3.23481 15.6533C4.2527 14.9861 6.23223 14.6075 7.17481 14.6075C8.4945 14.6075 8.51308 15.3479 8.51308 16.7895V20.6309C9.12032 19.5322 10.23 18.5944 11.9062 18.5944C13.8295 18.5944 14.9036 19.857 14.9036 21.9309V25.4845C14.9036 25.8794 14.979 26.0072 15.1487 26.1336C15.4144 26.3315 15.6971 26.5116 15.6971 26.9805ZM26.2732 24.9969C26.2732 25.5018 26.0467 26.0788 25.6134 26.602C24.8395 27.5758 23.3702 28.4054 21.353 28.4054C18.3746 28.4054 16.2821 26.4396 16.2821 23.6984C16.2821 20.741 18.6553 18.5944 21.7301 18.5944C24.6708 18.5944 26.2185 20.434 26.2185 21.8589C26.2185 22.8326 25.5778 23.3558 24.3711 23.3558H20.4104C20.7499 24.2936 21.597 24.8365 22.8419 24.8365C23.6158 24.8365 24.1998 24.6741 24.7652 24.3676C25.0288 24.2235 25.293 24.1154 25.5566 24.1154C25.9714 24.1135 26.2732 24.3839 26.2732 24.9969ZM20.2221 22.2557L21.0326 22.2014C22.2011 22.1293 22.6727 21.7147 22.6727 21.1373C22.6727 20.6506 22.3332 20.2716 21.7301 20.2716C20.8438 20.2716 20.2221 21.1195 20.2221 22.2557ZM38.3207 26.1706C38.3207 27.1266 37.3214 28.2435 35.5116 28.2435C34.325 28.2435 33.4567 27.7569 32.9481 26.9109C32.2882 27.7949 31.2136 28.3536 29.9129 28.3536C28.3296 28.3536 26.9155 27.5062 26.9155 25.7209C26.9155 23.7368 28.6876 22.8351 30.9309 22.8351C31.5207 22.8326 32.1091 22.893 32.6849 23.0153V21.7868C32.6849 20.8308 32.6287 20.3259 32.1762 20.3259C31.7991 20.3259 31.554 20.777 31.2899 21.1555C30.8916 21.7325 30.2725 22.3638 29.0447 22.3638C28.083 22.3638 27.5743 21.8406 27.5743 21.3179C27.5743 19.9651 30.6848 18.5944 33.4933 18.5944C36.0574 18.5944 37.3957 19.7849 37.3957 21.9507V24.7985C37.3957 25.4298 37.5654 25.7363 38.1499 25.9169C38.3006 25.9731 38.3207 26.025 38.3207 26.1706ZM32.834 24.9426V24.295C32.7544 24.2078 32.6557 24.1382 32.5448 24.0915C32.434 24.0448 32.3138 24.0219 32.1927 24.0246C31.7403 24.0246 31.439 24.4392 31.439 25.1598C31.439 25.9351 31.797 26.2416 32.1365 26.2416C32.5699 26.2412 32.834 25.989 32.834 24.9426ZM50.1396 19.8392C50.1396 20.3258 49.8946 20.6324 49.31 20.9571C48.8973 21.1916 48.5749 21.9132 48.0471 22.923C47.4796 24.0049 46.8033 25.2856 46.1434 26.3675C45.3324 27.6844 44.9744 28.279 43.8997 28.279C42.8251 28.279 42.448 27.7006 41.7133 26.4939C41.1855 25.6282 40.1486 23.7704 39.5465 22.5454C38.8866 21.2128 38.849 21.1205 38.6039 20.9221C38.283 20.6694 37.9626 20.4532 37.9626 19.966C37.9596 19.2608 38.7334 18.6685 41.4678 18.6685C43.8239 18.6685 44.9553 19.1379 44.9553 19.967C44.9553 20.4182 44.5968 20.6887 44.3517 20.851C44.1066 21.0134 44.1066 21.2656 44.1824 21.6081C44.314 22.2033 44.8418 23.3756 45.3887 24.4036C45.8979 23.3395 46.3689 22.1673 46.4633 21.6081C46.5577 21.0855 46.4065 20.9413 46.0862 20.7064C45.7467 20.4542 45.5393 20.1837 45.5393 19.8772C45.5393 19.1916 46.1992 18.6685 47.9522 18.6685C49.4798 18.6685 50.1396 19.1176 50.1396 19.8392ZM59.7923 24.9969C59.7923 25.5018 59.5663 26.0788 59.1325 26.602C58.3586 27.5758 56.8893 28.4054 54.872 28.4054C51.8937 28.4054 49.8012 26.4396 49.8012 23.6984C49.8012 20.741 52.1744 18.5944 55.2492 18.5944C58.1899 18.5944 59.7376 20.434 59.7376 21.8589C59.7376 22.8326 59.0963 23.3558 57.8901 23.3558H53.9311C54.2705 24.2936 55.1177 24.8365 56.363 24.8365C57.1369 24.8365 57.7204 24.6741 58.2858 24.3676C58.5495 24.2235 58.8136 24.1154 59.0777 24.1154C59.491 24.1135 59.7923 24.3839 59.7923 24.9969ZM53.7412 22.2557L54.5517 22.2014C55.7202 22.1293 56.1917 21.7147 56.1917 21.1373C56.1917 20.6506 55.8523 20.2716 55.2492 20.2716C54.3655 20.2716 53.7412 21.1195 53.7412 22.2557ZM73.2902 26.9805C73.2902 27.9908 71.9334 28.279 70.18 28.279C68.4271 28.279 67.2393 27.9908 67.2393 27.0348C67.2393 26.5659 67.5219 26.3853 67.6522 26.2052C67.8583 25.9347 67.8583 25.7185 67.8583 25.4841V23.7704C67.8583 21.9852 67.5757 21.4803 66.9729 21.4803C66.4053 21.4803 66.1239 21.9309 66.1054 23.4457V25.4841C66.1054 25.7185 66.1054 25.9347 66.3121 26.2052C66.4441 26.3853 66.7243 26.5659 66.7243 27.0348C66.7243 27.9908 65.5378 28.279 63.7837 28.279C62.0296 28.279 60.6735 27.9908 60.6735 26.9805C60.6735 26.4756 61.0128 26.2955 61.2201 26.133C61.4657 25.9357 61.4657 25.7545 61.4657 25.4841V22.0573C61.4657 21.6427 61.2954 21.462 61.1257 21.3357C60.8622 21.1383 60.6173 20.9029 60.6173 20.5065C60.6173 20.1818 60.7678 19.929 61.1257 19.6946C62.0876 19.0456 63.9534 18.6665 64.8406 18.6665C66.0271 18.6665 66.1036 19.3338 66.1036 20.6324C66.7064 19.5322 67.8189 18.5944 69.4965 18.5944C71.4191 18.5944 72.4939 19.857 72.4939 21.9309V25.4845C72.4939 25.755 72.4939 25.9351 72.7388 26.1336C72.9509 26.2955 73.2902 26.4756 73.2902 26.9805Z" fill="#FBFBFB"/>
</svg>
